<?xml version="1.0" encoding="UTF-8" standalone="yes"?>
<svg version="1.1" id="Layer_1" xmlns:x="&amp;ns_extend;" xmlns:i="&amp;ns_ai;" xmlns:graph="&amp;ns_graphs;" xmlns="http://www.w3.org/2000/svg" xmlns:xlink="http://www.w3.org/1999/xlink" x="0px" y="0px" viewBox="0 0 207.05051 315" style="enable-background:new 0 0 207.05051 315;" xml:space="preserve">
      <style type="text/css">.st0{fill:#0073BA;}	.st1{fill:#1698D8;}	.st2{fill:#3ABBED;}	.st3{fill:#52D0F7;}	.st4{fill:#83E8FF;}</style>
    <metadata>
              <sfw>
                      <slices/>
            <sliceSourceBounds bottomLeftOrigin="true" height="315" width="207.05051" x="64.26413" y="-0.16212"/>
                  </sfw>
          </metadata>
    <g id="color_index_0" fill="rgba(1, 101, 162, 1)">
              <polygon points="103.52525,315 97.65746,296.94077 78.66884,296.94077 94.03095,285.77954 88.16315,267.72031 &#x9;&#x9;103.52525,278.88153 118.88737,267.72031 113.01956,285.77954 128.38167,296.94077 109.39306,296.94077 &#x9;"/>
          </g>
    <g id="color_index_1" fill="rgba(12, 137, 198, 1)">
              <polygon points="103.52525,299.02841 95.14268,273.22949 68.01609,273.22949 89.96196,257.28491 81.57938,231.48598 &#x9;&#x9;103.52525,247.43059 125.47112,231.48598 117.08855,257.28491 139.03442,273.22949 111.90783,273.22949 &#x9;"/>
          </g>
    <g id="color_index_2" fill="rgba(32, 173, 228, 1)">
              <polygon points="103.52525,275.95868 91.55015,239.1031 52.79788,239.1031 84.14912,216.32509 72.17401,179.4695 &#x9;&#x9;103.52525,202.2475 134.8765,179.4695 122.90139,216.32509 154.25262,239.1031 115.50037,239.1031 &#x9;"/>
          </g>
    <g id="color_index_3" fill="rgba(85, 210, 248, 1)">
              <polygon points="103.52525,243.08282 86.41795,190.43198 31.05758,190.43198 75.84506,157.89197 58.73777,105.24111 &#x9;&#x9;103.52525,137.78113 148.31274,105.24111 131.20544,157.89197 175.99294,190.43198 120.63255,190.43198 &#x9;"/>
          </g>
    <g id="color_index_4" fill="rgba(142, 227, 255, 1)">
              <polygon points="103.52525,196.91673 79.08626,121.70123 0,121.70123 63.98213,75.2155 39.54313,0 103.52525,46.48574 &#x9;&#x9;167.50739,0 143.06839,75.2155 207.05051,121.70123 127.96426,121.70123 &#x9;"/>
          </g>
  </svg>